# xmcd
#
# Track frame offsets: 
#        150
#        16081
#        37592
#        53988
#        69121
#        78417
#        98633
#        112106
#        130971
#        147110
#        160102
#        178327
#        202636
#        221935
#        242067
#
# Disc length: 3503 seconds
#
# Revision: 0
# Processed by: cddbd v1.5.2PL0 Copyright (c) Steve Scherf et al.
# Submitted via: ExactAudioCopy v0.99pb3
#
DISCID=c30dad0f
DTITLE=Various Artist - Vital Music 29
DYEAR=2004
DGENRE=Vital
TTITLE0=Depeche Mode - Enjoy The Silence (reinterpreted by Mike Shinod
TTITLE0=a)
TTITLE1=Elliott Smith - Pretty (Ugly Before)
TTITLE2=Four Test - Castles Made Of Sand
TTITLE3=Roni Size - Rise Up (featuring Sweetie Irie)
TTITLE4=Mando Diao - Motown Blood
TTITLE5=Radio 4 - State Of Alert
TTITLE6=James Yorkston And The Athletes - Shipwreckers
TTITLE7=Pinback - Fortress
TTITLE8=Happylife - Silence When You're Burning
TTITLE9=Innocence Mission - What A Wonderful World
TTITLE10=Geezers Of Nazareth - Gold Rush
TTITLE11=Death In Vegas - Ein Für Die Damen
TTITLE12=Gold Chains with Sue Cie - Crowd Control
TTITLE13=Rodney P - I Believe
TTITLE14=Kings Of Tomorrow - London Fog
EXTD=
EXTT0=
EXTT1=
EXTT2=
EXTT3=
EXTT4=
EXTT5=
EXTT6=
EXTT7=
EXTT8=
EXTT9=
EXTT10=
EXTT11=
EXTT12=
EXTT13=
EXTT14=
PLAYORDER=
